<!--
  Drift Velocity as Statistical Bias on Thermal Chaos
  Book: Physics +1: Electromagnetism
  Chapter: 06-current-resistance
  Figure: 03
  Type: Annotated example / conceptual map
  Generated: 2026-05-25
  Source: pantry/06-current-resistance-cajal.md
-->
<svg viewBox="0 0 700 460" xmlns="http://www.w3.org/2000/svg"
     role="img" aria-labelledby="fig-title">
  <title id="fig-title">Drift Velocity — A Slow Bias on Chaotic Thermal Motion</title>
  <desc>Two side-by-side panels of a wire cross-section with about thirty electrons. Panel A with no field: dots scattered, arrows random, centroid stationary. Panel B with field applied: same chaotic motion, but each velocity arrow has a tiny rightward drift added; the centroid translates slowly to the right. The current is the slow creep of a cloud whose individual members are mostly going somewhere else.</desc>
  <metadata>
    <cajal:figure
      xmlns:cajal="https://bearbrown.ai/cajal/1.0"
      book="Physics +1: Electromagnetism"
      book-slug="physics-electromagnetism"
      chapter="06-current-resistance"
      figure-number="03"
      figure-title="Drift Velocity as Bias"
      figure-slug="drift-as-bias"
      figure-type="annotated-example"
      priority="Critical"
      author="Humanitarians AI"
      date-generated="2026-05-25"
      source-file="pantry/06-current-resistance-cajal.md"
    />
  </metadata>
  <defs>
    <marker id="arrowred" markerWidth="10" markerHeight="8" refX="9" refY="4" orient="auto">
      <polygon points="0 0, 10 4, 0 8" fill="#C8102E"/>
    </marker>
  </defs>
  <rect x="0" y="0" width="700" height="460" fill="#FFFFFF"/>

  <text x="32" y="36" font-family="'EB Garamond', 'Garamond', Georgia, serif" font-size="14" fill="#2a1a0e">The Current Is Bias on Chaos — Not a Stampede</text>
  <text x="32" y="56" font-family="'Inter', -apple-system, 'Helvetica Neue', sans-serif" font-size="11" fill="#545454">Each electron is mostly going somewhere else. The cloud's average creeps slowly.</text>

  <line x1="350" y1="80" x2="350" y2="370" stroke="#2a1a0e" stroke-width="0.5"/>

  <!-- Panel A: E = 0 -->
  <text x="180" y="100" text-anchor="middle" font-family="'Inter', -apple-system, 'Helvetica Neue', sans-serif" font-size="10" fill="#2a1a0e" letter-spacing="0.08em">(A) E⃗ = 0 — RANDOM, NO DRIFT</text>
  <rect x="60" y="120" width="240" height="200" fill="none" stroke="#2a1a0e" stroke-width="1.5"/>

  <!-- Random electron dots with random-direction arrows -->
  <g stroke="#545454" stroke-width="0.75" fill="none">
    <line x1="85" y1="155" x2="100" y2="148"/>
    <line x1="125" y1="175" x2="110" y2="180"/>
    <line x1="160" y1="145" x2="170" y2="160"/>
    <line x1="200" y1="170" x2="190" y2="155"/>
    <line x1="235" y1="160" x2="245" y2="170"/>
    <line x1="270" y1="180" x2="260" y2="195"/>
    <line x1="95" y1="200" x2="110" y2="190"/>
    <line x1="140" y1="210" x2="155" y2="220"/>
    <line x1="180" y1="220" x2="170" y2="235"/>
    <line x1="220" y1="200" x2="235" y2="195"/>
    <line x1="255" y1="225" x2="240" y2="230"/>
    <line x1="120" y1="240" x2="115" y2="255"/>
    <line x1="165" y1="260" x2="180" y2="265"/>
    <line x1="200" y1="270" x2="210" y2="285"/>
    <line x1="240" y1="270" x2="250" y2="280"/>
    <line x1="270" y1="290" x2="255" y2="295"/>
    <line x1="105" y1="290" x2="90" y2="295"/>
    <line x1="135" y1="300" x2="150" y2="305"/>
  </g>
  <g fill="#56B4E9">
    <circle cx="85" cy="155" r="3"/>
    <circle cx="125" cy="175" r="3"/>
    <circle cx="160" cy="145" r="3"/>
    <circle cx="200" cy="170" r="3"/>
    <circle cx="235" cy="160" r="3"/>
    <circle cx="270" cy="180" r="3"/>
    <circle cx="95" cy="200" r="3"/>
    <circle cx="140" cy="210" r="3"/>
    <circle cx="180" cy="220" r="3"/>
    <circle cx="220" cy="200" r="3"/>
    <circle cx="255" cy="225" r="3"/>
    <circle cx="120" cy="240" r="3"/>
    <circle cx="165" cy="260" r="3"/>
    <circle cx="200" cy="270" r="3"/>
    <circle cx="240" cy="270" r="3"/>
    <circle cx="270" cy="290" r="3"/>
    <circle cx="105" cy="290" r="3"/>
    <circle cx="135" cy="300" r="3"/>
  </g>

  <!-- Centroid marker -->
  <line x1="175" y1="115" x2="175" y2="125" stroke="#C8102E" stroke-width="1.5"/>
  <line x1="170" y1="120" x2="180" y2="120" stroke="#C8102E" stroke-width="1.5"/>
  <text x="175" y="340" text-anchor="middle" font-family="'JetBrains Mono', 'Fira Code', 'Courier New', monospace" font-size="10" fill="#C8102E">centroid: stationary</text>

  <!-- Panel B: E ≠ 0 -->
  <text x="510" y="100" text-anchor="middle" font-family="'Inter', -apple-system, 'Helvetica Neue', sans-serif" font-size="10" fill="#C8102E" letter-spacing="0.08em">(B) E⃗ ≠ 0 — SAME CHAOS, TINY BIAS</text>
  <rect x="390" y="120" width="240" height="200" fill="none" stroke="#2a1a0e" stroke-width="1.5"/>

  <!-- Same random pattern (different positions) but each arrow biased slightly right -->
  <g stroke="#545454" stroke-width="0.75" fill="none">
    <line x1="415" y1="155" x2="432" y2="150"/>
    <line x1="455" y1="175" x2="442" y2="182"/>
    <line x1="490" y1="145" x2="502" y2="160"/>
    <line x1="530" y1="170" x2="522" y2="155"/>
    <line x1="565" y1="160" x2="578" y2="170"/>
    <line x1="600" y1="180" x2="592" y2="195"/>
    <line x1="425" y1="200" x2="442" y2="192"/>
    <line x1="470" y1="210" x2="487" y2="220"/>
    <line x1="510" y1="220" x2="502" y2="235"/>
    <line x1="550" y1="200" x2="567" y2="195"/>
    <line x1="585" y1="225" x2="572" y2="230"/>
    <line x1="450" y1="240" x2="447" y2="255"/>
    <line x1="495" y1="260" x2="512" y2="265"/>
    <line x1="530" y1="270" x2="542" y2="285"/>
    <line x1="570" y1="270" x2="582" y2="280"/>
    <line x1="600" y1="290" x2="588" y2="295"/>
    <line x1="435" y1="290" x2="422" y2="295"/>
    <line x1="465" y1="300" x2="482" y2="305"/>
  </g>
  <g fill="#56B4E9">
    <circle cx="415" cy="155" r="3"/>
    <circle cx="455" cy="175" r="3"/>
    <circle cx="490" cy="145" r="3"/>
    <circle cx="530" cy="170" r="3"/>
    <circle cx="565" cy="160" r="3"/>
    <circle cx="600" cy="180" r="3"/>
    <circle cx="425" cy="200" r="3"/>
    <circle cx="470" cy="210" r="3"/>
    <circle cx="510" cy="220" r="3"/>
    <circle cx="550" cy="200" r="3"/>
    <circle cx="585" cy="225" r="3"/>
    <circle cx="450" cy="240" r="3"/>
    <circle cx="495" cy="260" r="3"/>
    <circle cx="530" cy="270" r="3"/>
    <circle cx="570" cy="270" r="3"/>
    <circle cx="600" cy="290" r="3"/>
    <circle cx="435" cy="290" r="3"/>
    <circle cx="465" cy="300" r="3"/>
  </g>

  <!-- Field arrow at top -->
  <line x1="430" y1="106" x2="490" y2="106" stroke="#C8102E" stroke-width="2" marker-end="url(#arrowred)"/>
  <text x="500" y="110" font-family="'JetBrains Mono', 'Fira Code', 'Courier New', monospace" font-size="10" fill="#C8102E">E⃗</text>

  <!-- Centroid marker — slightly to the right of A's -->
  <line x1="515" y1="115" x2="515" y2="125" stroke="#C8102E" stroke-width="1.5"/>
  <line x1="510" y1="120" x2="520" y2="120" stroke="#C8102E" stroke-width="1.5"/>
  <!-- Drift arrow -->
  <line x1="515" y1="120" x2="555" y2="120" stroke="#C8102E" stroke-width="1.5" marker-end="url(#arrowred)"/>
  <text x="535" y="112" text-anchor="middle" font-family="'JetBrains Mono', 'Fira Code', 'Courier New', monospace" font-size="9" fill="#C8102E">v_d (tiny)</text>
  <text x="515" y="340" text-anchor="middle" font-family="'JetBrains Mono', 'Fira Code', 'Courier New', monospace" font-size="10" fill="#C8102E">centroid: slow creep right</text>

  <!-- Caption -->
  <rect x="60" y="384" width="580" height="60" fill="#F5F5F5" stroke="#C8102E" stroke-width="1.25"/>
  <text x="350" y="404" text-anchor="middle" font-family="'EB Garamond', 'Garamond', Georgia, serif" font-size="12" fill="#2a1a0e">The current is the slow creep of a cloud whose members are almost all going elsewhere.</text>
  <text x="350" y="422" text-anchor="middle" font-family="'EB Garamond', 'Garamond', Georgia, serif" font-size="11" fill="#C8102E">v_d ≈ 10⁻⁴ m/s riding on v_F ≈ 10⁶ m/s.</text>
  <text x="350" y="438" text-anchor="middle" font-family="'JetBrains Mono', 'Fira Code', 'Courier New', monospace" font-size="9" fill="#545454">Image compresses the 10¹⁰ ratio for visibility.</text>
</svg>
