<!--
  Drude Model — Free-Electron Trajectory with Collisions
  Book: Physics +1: Electromagnetism
  Chapter: 06-current-resistance
  Figure: 04
  Type: Mechanism cross-section
  Generated: 2026-05-25
  Source: pantry/06-current-resistance-cajal.md
-->
<svg viewBox="0 0 700 460" xmlns="http://www.w3.org/2000/svg"
     role="img" aria-labelledby="fig-title">
  <title id="fig-title">Drude Model — Free Flight Between Collisions</title>
  <desc>A regular lattice of ion cores with an electron trajectory drawn through it. Between collision events (marked with red X's), the electron flies in a straight segment slightly biased in the direction opposite the applied field. After multiple collisions, the cumulative displacement equals drift velocity times time. Mean free time tau between collisions is labeled.</desc>
  <metadata>
    <cajal:figure
      xmlns:cajal="https://bearbrown.ai/cajal/1.0"
      book="Physics +1: Electromagnetism"
      book-slug="physics-electromagnetism"
      chapter="06-current-resistance"
      figure-number="04"
      figure-title="Drude Trajectory"
      figure-slug="drude-trajectory"
      figure-type="mechanism"
      priority="Important"
      author="Humanitarians AI"
      date-generated="2026-05-25"
      source-file="pantry/06-current-resistance-cajal.md"
    />
  </metadata>
  <defs>
    <marker id="arrowoch" markerWidth="10" markerHeight="8" refX="9" refY="4" orient="auto">
      <polygon points="0 0, 10 4, 0 8" fill="#C8860E"/>
    </marker>
    <marker id="arrowred" markerWidth="10" markerHeight="8" refX="9" refY="4" orient="auto">
      <polygon points="0 0, 10 4, 0 8" fill="#C8102E"/>
    </marker>
  </defs>
  <rect x="0" y="0" width="700" height="460" fill="#FFFFFF"/>

  <text x="32" y="36" font-family="'EB Garamond', 'Garamond', Georgia, serif" font-size="14" fill="#2a1a0e">Drude Model — Free Flight, Collision, Repeat</text>
  <text x="32" y="56" font-family="'Inter', -apple-system, 'Helvetica Neue', sans-serif" font-size="11" fill="#545454">Each collision wipes the electron's memory. Average over many: a slow drift.</text>

  <!-- Lattice of ion cores -->
  <g fill="#D4D4D4" stroke="#545454" stroke-width="0.5">
    <circle cx="100" cy="120" r="5"/>
    <circle cx="160" cy="120" r="5"/>
    <circle cx="220" cy="120" r="5"/>
    <circle cx="280" cy="120" r="5"/>
    <circle cx="340" cy="120" r="5"/>
    <circle cx="400" cy="120" r="5"/>
    <circle cx="460" cy="120" r="5"/>
    <circle cx="520" cy="120" r="5"/>
    <circle cx="580" cy="120" r="5"/>
    <circle cx="640" cy="120" r="5"/>
    <circle cx="100" cy="180" r="5"/>
    <circle cx="160" cy="180" r="5"/>
    <circle cx="220" cy="180" r="5"/>
    <circle cx="280" cy="180" r="5"/>
    <circle cx="340" cy="180" r="5"/>
    <circle cx="400" cy="180" r="5"/>
    <circle cx="460" cy="180" r="5"/>
    <circle cx="520" cy="180" r="5"/>
    <circle cx="580" cy="180" r="5"/>
    <circle cx="640" cy="180" r="5"/>
    <circle cx="100" cy="240" r="5"/>
    <circle cx="160" cy="240" r="5"/>
    <circle cx="220" cy="240" r="5"/>
    <circle cx="280" cy="240" r="5"/>
    <circle cx="340" cy="240" r="5"/>
    <circle cx="400" cy="240" r="5"/>
    <circle cx="460" cy="240" r="5"/>
    <circle cx="520" cy="240" r="5"/>
    <circle cx="580" cy="240" r="5"/>
    <circle cx="640" cy="240" r="5"/>
    <circle cx="100" cy="300" r="5"/>
    <circle cx="160" cy="300" r="5"/>
    <circle cx="220" cy="300" r="5"/>
    <circle cx="280" cy="300" r="5"/>
    <circle cx="340" cy="300" r="5"/>
    <circle cx="400" cy="300" r="5"/>
    <circle cx="460" cy="300" r="5"/>
    <circle cx="520" cy="300" r="5"/>
    <circle cx="580" cy="300" r="5"/>
    <circle cx="640" cy="300" r="5"/>
  </g>

  <!-- Field arrow (applied to whole region) -->
  <line x1="60" y1="80" x2="120" y2="80" stroke="#C8860E" stroke-width="2" marker-end="url(#arrowoch)"/>
  <text x="130" y="84" font-family="'JetBrains Mono', 'Fira Code', 'Courier New', monospace" font-size="10" fill="#C8860E">E⃗ (applied)</text>

  <!-- Electron trajectory (zigzag, drifting leftward — opposite E) - wait actually electrons drift opposite to E. If E points right then electron drifts left. But the lattice extends leftward too. Let's make E point right, electrons drift left, but trajectory shows it moving right slightly biased downward and zigzagging - actually easier to show electron moving from left to right with bias opposite to "expected" classical direction. Standard textbook convention: show E pointing right; electron drifts LEFT but starting position on right. -->
  <!-- Let me reorient: electron drifts in opposite to E direction. So if E points RIGHT, electron net displacement is LEFT. -->
  <!-- For visual clarity, let's flip: show E pointing LEFT and electron drifting right (textbook simplification, conventional current). Actually simpler: just show drift direction of electrons (leftward) with E pointing rightward. -->

  <!-- Trajectory: starts at right (640, 270), zigzags through, ends at left (100, 200). Each straight segment between collision markers. -->
  <polyline points="640,270 580,240 540,210 480,250 420,200 380,260 320,210 260,240 200,200 140,250 100,200"
    stroke="#56B4E9" stroke-width="1.5" fill="none"/>

  <!-- Collision markers (red ×'s at vertices) -->
  <g stroke="#C8102E" stroke-width="1.5">
    <line x1="575" y1="235" x2="585" y2="245"/>
    <line x1="585" y1="235" x2="575" y2="245"/>
    <line x1="535" y1="205" x2="545" y2="215"/>
    <line x1="545" y1="205" x2="535" y2="215"/>
    <line x1="475" y1="245" x2="485" y2="255"/>
    <line x1="485" y1="245" x2="475" y2="255"/>
    <line x1="415" y1="195" x2="425" y2="205"/>
    <line x1="425" y1="195" x2="415" y2="205"/>
    <line x1="375" y1="255" x2="385" y2="265"/>
    <line x1="385" y1="255" x2="375" y2="265"/>
    <line x1="315" y1="205" x2="325" y2="215"/>
    <line x1="325" y1="205" x2="315" y2="215"/>
    <line x1="255" y1="235" x2="265" y2="245"/>
    <line x1="265" y1="235" x2="255" y2="245"/>
    <line x1="195" y1="195" x2="205" y2="205"/>
    <line x1="205" y1="195" x2="195" y2="205"/>
    <line x1="135" y1="245" x2="145" y2="255"/>
    <line x1="145" y1="245" x2="135" y2="255"/>
  </g>

  <!-- Drift direction arrow + label -->
  <line x1="540" y1="350" x2="180" y2="350" stroke="#C8102E" stroke-width="2" marker-end="url(#arrowred)"/>
  <text x="360" y="368" text-anchor="middle" font-family="'JetBrains Mono', 'Fira Code', 'Courier New', monospace" font-size="10" fill="#C8102E">net drift v_d ≪ thermal speed</text>

  <!-- Mean free time annotation -->
  <line x1="540" y1="210" x2="480" y2="250" stroke="#56B4E9" stroke-width="0.5" stroke-dasharray="2 2"/>
  <text x="495" y="200" font-family="'JetBrains Mono', 'Fira Code', 'Courier New', monospace" font-size="9" fill="#56B4E9">free flight</text>
  <text x="495" y="214" font-family="'JetBrains Mono', 'Fira Code', 'Courier New', monospace" font-size="9" fill="#56B4E9">over time τ</text>

  <!-- Caption -->
  <rect x="60" y="394" width="580" height="44" fill="#F5F5F5" stroke="#C8102E" stroke-width="1.25"/>
  <text x="350" y="414" text-anchor="middle" font-family="'EB Garamond', 'Garamond', Georgia, serif" font-size="12" fill="#2a1a0e">Between collisions, free acceleration in E⃗. Each ×  resets the memory.</text>
  <text x="350" y="432" text-anchor="middle" font-family="'EB Garamond', 'Garamond', Georgia, serif" font-size="11" fill="#C8102E">Average over millions of trajectories: Ohm's law σ = ne²τ/m.</text>
</svg>
