<!--
  Voltage Divider and the Loading Effect
  Book: Physics +1: Electromagnetism
  Chapter: 07-dc-circuits
  Figure: 04
  Type: Mechanism cross-section / annotated example
  Generated: 2026-05-25
  Source: pantry/07-dc-circuits-cajal.md
-->
<svg viewBox="0 0 700 460" xmlns="http://www.w3.org/2000/svg"
     role="img" aria-labelledby="fig-title">
  <title id="fig-title">Voltage Divider Loading — How Meter Impedance Changes the Answer</title>
  <desc>Three panels of the same 12 volt voltage divider with R one equals R two equals 1000 ohms. Panel A: ideal voltmeter (infinite impedance) reads 6 volts. Panel B: realistic 10 megaohm voltmeter reads about 5.997 volts. Panel C: cheap 10 kiloohm voltmeter reads about 5.45 volts. Every meter changes the circuit by being there.</desc>
  <metadata>
    <cajal:figure
      xmlns:cajal="https://bearbrown.ai/cajal/1.0"
      book="Physics +1: Electromagnetism"
      book-slug="physics-electromagnetism"
      chapter="07-dc-circuits"
      figure-number="04"
      figure-title="Voltage Divider Loading"
      figure-slug="divider-loading"
      figure-type="annotated-example"
      priority="Important"
      author="Humanitarians AI"
      date-generated="2026-05-25"
      source-file="pantry/07-dc-circuits-cajal.md"
    />
  </metadata>
  <rect x="0" y="0" width="700" height="460" fill="#FFFFFF"/>

  <text x="32" y="36" font-family="'EB Garamond', 'Garamond', Georgia, serif" font-size="14" fill="#2a1a0e">Voltage Divider — The Voltmeter Becomes Part of the Circuit</text>
  <text x="32" y="56" font-family="'Inter', -apple-system, 'Helvetica Neue', sans-serif" font-size="11" fill="#545454">Every meter changes the circuit by being there. High impedance = small change.</text>

  <line x1="240" y1="80" x2="240" y2="370" stroke="#2a1a0e" stroke-width="0.5"/>
  <line x1="460" y1="80" x2="460" y2="370" stroke="#2a1a0e" stroke-width="0.5"/>

  <!-- Reusable divider drawing function not possible, draw each panel separately -->

  <!-- Panel A: Ideal voltmeter -->
  <text x="120" y="100" text-anchor="middle" font-family="'Inter', -apple-system, 'Helvetica Neue', sans-serif" font-size="10" fill="#56B4E9" letter-spacing="0.08em">(A) IDEAL (∞ Ω)</text>
  <!-- 12V battery on left -->
  <line x1="60" y1="155" x2="80" y2="155" stroke="#2a1a0e" stroke-width="1"/>
  <line x1="80" y1="145" x2="80" y2="165" stroke="#56B4E9" stroke-width="2.5"/>
  <line x1="88" y1="135" x2="88" y2="175" stroke="#56B4E9" stroke-width="1.5"/>
  <text x="50" y="158" text-anchor="end" font-family="'JetBrains Mono', 'Fira Code', 'Courier New', monospace" font-size="9" fill="#56B4E9">12V</text>
  <line x1="88" y1="155" x2="120" y2="155" stroke="#2a1a0e" stroke-width="1"/>
  <line x1="120" y1="155" x2="120" y2="170" stroke="#2a1a0e" stroke-width="1"/>
  <!-- R1 -->
  <path d="M 120 170 L 112 176 L 128 182 L 112 188 L 128 194 L 112 200 L 128 206 L 120 212" stroke="#C8102E" stroke-width="1.25" fill="none"/>
  <text x="98" y="190" text-anchor="end" font-family="'JetBrains Mono', 'Fira Code', 'Courier New', monospace" font-size="9" fill="#2a1a0e">R₁ 1kΩ</text>
  <line x1="120" y1="212" x2="120" y2="225" stroke="#2a1a0e" stroke-width="1"/>
  <!-- R2 -->
  <path d="M 120 225 L 112 231 L 128 237 L 112 243 L 128 249 L 112 255 L 128 261 L 120 267" stroke="#C8102E" stroke-width="1.25" fill="none"/>
  <text x="98" y="246" text-anchor="end" font-family="'JetBrains Mono', 'Fira Code', 'Courier New', monospace" font-size="9" fill="#2a1a0e">R₂ 1kΩ</text>
  <line x1="120" y1="267" x2="120" y2="290" stroke="#2a1a0e" stroke-width="1"/>
  <line x1="120" y1="290" x2="60" y2="290" stroke="#2a1a0e" stroke-width="1"/>
  <line x1="60" y1="290" x2="60" y2="155" stroke="#2a1a0e" stroke-width="1"/>
  <!-- Voltmeter across R2 -->
  <circle cx="180" cy="246" r="14" fill="none" stroke="#3AAE3A" stroke-width="1.25"/>
  <text x="180" y="250" text-anchor="middle" font-family="'JetBrains Mono', 'Fira Code', 'Courier New', monospace" font-size="10" fill="#3AAE3A">V</text>
  <line x1="166" y1="246" x2="120" y2="225" stroke="#3AAE3A" stroke-width="0.75" stroke-dasharray="3 2"/>
  <line x1="194" y1="246" x2="200" y2="246" stroke="#3AAE3A" stroke-width="0.75"/>
  <line x1="200" y1="246" x2="200" y2="290" stroke="#3AAE3A" stroke-width="0.75"/>
  <line x1="200" y1="290" x2="120" y2="290" stroke="#3AAE3A" stroke-width="0.75" stroke-dasharray="3 2"/>

  <!-- V_out -->
  <rect x="70" y="310" width="100" height="32" fill="#F5F5F5" stroke="#56B4E9" stroke-width="1"/>
  <text x="120" y="332" text-anchor="middle" font-family="'JetBrains Mono', 'Fira Code', 'Courier New', monospace" font-size="11" fill="#56B4E9">V_out = 6.00 V</text>

  <!-- Panel B: 10 MΩ realistic -->
  <text x="350" y="100" text-anchor="middle" font-family="'Inter', -apple-system, 'Helvetica Neue', sans-serif" font-size="10" fill="#56B4E9" letter-spacing="0.08em">(B) REALISTIC 10 MΩ</text>
  <line x1="280" y1="155" x2="300" y2="155" stroke="#2a1a0e" stroke-width="1"/>
  <line x1="300" y1="145" x2="300" y2="165" stroke="#56B4E9" stroke-width="2.5"/>
  <line x1="308" y1="135" x2="308" y2="175" stroke="#56B4E9" stroke-width="1.5"/>
  <text x="270" y="158" text-anchor="end" font-family="'JetBrains Mono', 'Fira Code', 'Courier New', monospace" font-size="9" fill="#56B4E9">12V</text>
  <line x1="308" y1="155" x2="340" y2="155" stroke="#2a1a0e" stroke-width="1"/>
  <line x1="340" y1="155" x2="340" y2="170" stroke="#2a1a0e" stroke-width="1"/>
  <path d="M 340 170 L 332 176 L 348 182 L 332 188 L 348 194 L 332 200 L 348 206 L 340 212" stroke="#C8102E" stroke-width="1.25" fill="none"/>
  <text x="318" y="190" text-anchor="end" font-family="'JetBrains Mono', 'Fira Code', 'Courier New', monospace" font-size="9" fill="#2a1a0e">R₁</text>
  <line x1="340" y1="212" x2="340" y2="225" stroke="#2a1a0e" stroke-width="1"/>
  <path d="M 340 225 L 332 231 L 348 237 L 332 243 L 348 249 L 332 255 L 348 261 L 340 267" stroke="#C8102E" stroke-width="1.25" fill="none"/>
  <text x="318" y="246" text-anchor="end" font-family="'JetBrains Mono', 'Fira Code', 'Courier New', monospace" font-size="9" fill="#2a1a0e">R₂</text>
  <line x1="340" y1="267" x2="340" y2="290" stroke="#2a1a0e" stroke-width="1"/>
  <line x1="340" y1="290" x2="280" y2="290" stroke="#2a1a0e" stroke-width="1"/>
  <line x1="280" y1="290" x2="280" y2="155" stroke="#2a1a0e" stroke-width="1"/>
  <circle cx="400" cy="246" r="14" fill="none" stroke="#3AAE3A" stroke-width="1.25"/>
  <text x="400" y="250" text-anchor="middle" font-family="'JetBrains Mono', 'Fira Code', 'Courier New', monospace" font-size="10" fill="#3AAE3A">V</text>
  <text x="418" y="230" font-family="'JetBrains Mono', 'Fira Code', 'Courier New', monospace" font-size="8" fill="#3AAE3A">10 MΩ</text>
  <line x1="386" y1="246" x2="340" y2="225" stroke="#3AAE3A" stroke-width="0.75" stroke-dasharray="3 2"/>
  <line x1="414" y1="246" x2="420" y2="246" stroke="#3AAE3A" stroke-width="0.75"/>
  <line x1="420" y1="246" x2="420" y2="290" stroke="#3AAE3A" stroke-width="0.75"/>
  <line x1="420" y1="290" x2="340" y2="290" stroke="#3AAE3A" stroke-width="0.75" stroke-dasharray="3 2"/>
  <rect x="290" y="310" width="120" height="32" fill="#F5F5F5" stroke="#56B4E9" stroke-width="1"/>
  <text x="350" y="332" text-anchor="middle" font-family="'JetBrains Mono', 'Fira Code', 'Courier New', monospace" font-size="11" fill="#56B4E9">V_out ≈ 5.997 V</text>

  <!-- Panel C: 10 kΩ cheap -->
  <text x="570" y="100" text-anchor="middle" font-family="'Inter', -apple-system, 'Helvetica Neue', sans-serif" font-size="10" fill="#C8102E" letter-spacing="0.08em">(C) CHEAP 10 kΩ — LOADED</text>
  <line x1="500" y1="155" x2="520" y2="155" stroke="#2a1a0e" stroke-width="1"/>
  <line x1="520" y1="145" x2="520" y2="165" stroke="#56B4E9" stroke-width="2.5"/>
  <line x1="528" y1="135" x2="528" y2="175" stroke="#56B4E9" stroke-width="1.5"/>
  <text x="490" y="158" text-anchor="end" font-family="'JetBrains Mono', 'Fira Code', 'Courier New', monospace" font-size="9" fill="#56B4E9">12V</text>
  <line x1="528" y1="155" x2="560" y2="155" stroke="#2a1a0e" stroke-width="1"/>
  <line x1="560" y1="155" x2="560" y2="170" stroke="#2a1a0e" stroke-width="1"/>
  <path d="M 560 170 L 552 176 L 568 182 L 552 188 L 568 194 L 552 200 L 568 206 L 560 212" stroke="#C8102E" stroke-width="1.25" fill="none"/>
  <text x="538" y="190" text-anchor="end" font-family="'JetBrains Mono', 'Fira Code', 'Courier New', monospace" font-size="9" fill="#2a1a0e">R₁</text>
  <line x1="560" y1="212" x2="560" y2="225" stroke="#2a1a0e" stroke-width="1"/>
  <path d="M 560 225 L 552 231 L 568 237 L 552 243 L 568 249 L 552 255 L 568 261 L 560 267" stroke="#C8102E" stroke-width="1.25" fill="none"/>
  <text x="538" y="246" text-anchor="end" font-family="'JetBrains Mono', 'Fira Code', 'Courier New', monospace" font-size="9" fill="#2a1a0e">R₂</text>
  <line x1="560" y1="267" x2="560" y2="290" stroke="#2a1a0e" stroke-width="1"/>
  <line x1="560" y1="290" x2="500" y2="290" stroke="#2a1a0e" stroke-width="1"/>
  <line x1="500" y1="290" x2="500" y2="155" stroke="#2a1a0e" stroke-width="1"/>
  <circle cx="620" cy="246" r="14" fill="none" stroke="#C8102E" stroke-width="1.5"/>
  <text x="620" y="250" text-anchor="middle" font-family="'JetBrains Mono', 'Fira Code', 'Courier New', monospace" font-size="10" fill="#C8102E">V</text>
  <text x="638" y="230" font-family="'JetBrains Mono', 'Fira Code', 'Courier New', monospace" font-size="8" fill="#C8102E">10 kΩ</text>
  <line x1="606" y1="246" x2="560" y2="225" stroke="#C8102E" stroke-width="0.75" stroke-dasharray="3 2"/>
  <line x1="634" y1="246" x2="640" y2="246" stroke="#C8102E" stroke-width="0.75"/>
  <line x1="640" y1="246" x2="640" y2="290" stroke="#C8102E" stroke-width="0.75"/>
  <line x1="640" y1="290" x2="560" y2="290" stroke="#C8102E" stroke-width="0.75" stroke-dasharray="3 2"/>
  <rect x="510" y="310" width="120" height="32" fill="#F5F5F5" stroke="#C8102E" stroke-width="1"/>
  <text x="570" y="332" text-anchor="middle" font-family="'JetBrains Mono', 'Fira Code', 'Courier New', monospace" font-size="11" fill="#C8102E">V_out ≈ 5.45 V</text>

  <!-- Caption -->
  <rect x="60" y="384" width="580" height="60" fill="#F5F5F5" stroke="#C8102E" stroke-width="1.25"/>
  <text x="350" y="404" text-anchor="middle" font-family="'EB Garamond', 'Garamond', Georgia, serif" font-size="12" fill="#2a1a0e">The voltmeter sits in parallel with R₂. Its impedance combines.</text>
  <text x="350" y="422" text-anchor="middle" font-family="'EB Garamond', 'Garamond', Georgia, serif" font-size="11" fill="#C8102E">High R_meter → low loading. Same physics as the laptop dimming the lamp.</text>
  <text x="350" y="438" text-anchor="middle" font-family="'JetBrains Mono', 'Fira Code', 'Courier New', monospace" font-size="9" fill="#545454">High-impedance multimeters are engineered around this exact problem.</text>
</svg>
