<!--
  Force on a Current-Carrying Wire
  Book: Physics +1: Electromagnetism
  Chapter: 08-magnetism-magnetic-force
  Figure: 05
  Type: Annotated example
  Generated: 2026-05-25
  Source: pantry/08-magnetism-magnetic-force-cajal.md
-->
<svg viewBox="0 0 700 460" xmlns="http://www.w3.org/2000/svg"
     role="img" aria-labelledby="fig-title">
  <title id="fig-title">Force on a Current-Carrying Wire — F equals I L cross B</title>
  <desc>A straight wire carries current I along the positive x direction in an external magnetic field B that points into the page. The force F equals I L cross B points upward in the plane. Individual electrons drift in the negative x direction; each electron experiences a tiny magnetic force that transfers momentum to the lattice. The macroscopic wire feels the integrated force.</desc>
  <metadata>
    <cajal:figure
      xmlns:cajal="https://bearbrown.ai/cajal/1.0"
      book="Physics +1: Electromagnetism"
      book-slug="physics-electromagnetism"
      chapter="08-magnetism-magnetic-force"
      figure-number="05"
      figure-title="Force on a Current-Carrying Wire"
      figure-slug="force-on-wire"
      figure-type="annotated-example"
      priority="Important"
      author="Humanitarians AI"
      date-generated="2026-05-25"
      source-file="pantry/08-magnetism-magnetic-force-cajal.md"
    />
  </metadata>
  <defs>
    <marker id="arrowoch" markerWidth="10" markerHeight="8" refX="9" refY="4" orient="auto">
      <polygon points="0 0, 10 4, 0 8" fill="#C8860E"/>
    </marker>
    <marker id="arrowred" markerWidth="10" markerHeight="8" refX="9" refY="4" orient="auto">
      <polygon points="0 0, 10 4, 0 8" fill="#C8102E"/>
    </marker>
    <marker id="arrowsm" markerWidth="6" markerHeight="5" refX="5" refY="2.5" orient="auto">
      <polygon points="0 0, 6 2.5, 0 5" fill="#C8860E"/>
    </marker>
  </defs>
  <rect x="0" y="0" width="700" height="460" fill="#FFFFFF"/>

  <text x="32" y="36" font-family="'EB Garamond', 'Garamond', Georgia, serif" font-size="14" fill="#2a1a0e">Force on a Current — Each Carrier's Push, Summed</text>
  <text x="32" y="56" font-family="'Inter', -apple-system, 'Helvetica Neue', sans-serif" font-size="11" fill="#545454">F⃗ = I L⃗ × B⃗ — the engine of every electric motor.</text>

  <!-- B field into page (X marks) -->
  <g stroke="#C8102E" stroke-width="1">
    <line x1="92" y1="148" x2="98" y2="154"/>
    <line x1="98" y1="148" x2="92" y2="154"/>
    <line x1="172" y1="148" x2="178" y2="154"/>
    <line x1="178" y1="148" x2="172" y2="154"/>
    <line x1="252" y1="148" x2="258" y2="154"/>
    <line x1="258" y1="148" x2="252" y2="154"/>
    <line x1="332" y1="148" x2="338" y2="154"/>
    <line x1="338" y1="148" x2="332" y2="154"/>
    <line x1="412" y1="148" x2="418" y2="154"/>
    <line x1="418" y1="148" x2="412" y2="154"/>
    <line x1="492" y1="148" x2="498" y2="154"/>
    <line x1="498" y1="148" x2="492" y2="154"/>
    <line x1="572" y1="148" x2="578" y2="154"/>
    <line x1="578" y1="148" x2="572" y2="154"/>
    <line x1="92" y1="288" x2="98" y2="294"/>
    <line x1="98" y1="288" x2="92" y2="294"/>
    <line x1="172" y1="288" x2="178" y2="294"/>
    <line x1="178" y1="288" x2="172" y2="294"/>
    <line x1="252" y1="288" x2="258" y2="294"/>
    <line x1="258" y1="288" x2="252" y2="294"/>
    <line x1="332" y1="288" x2="338" y2="294"/>
    <line x1="338" y1="288" x2="332" y2="294"/>
    <line x1="412" y1="288" x2="418" y2="294"/>
    <line x1="418" y1="288" x2="412" y2="294"/>
    <line x1="492" y1="288" x2="498" y2="294"/>
    <line x1="498" y1="288" x2="492" y2="294"/>
    <line x1="572" y1="288" x2="578" y2="294"/>
    <line x1="578" y1="288" x2="572" y2="294"/>
  </g>
  <text x="620" y="152" text-anchor="end" font-family="'JetBrains Mono', 'Fira Code', 'Courier New', monospace" font-size="9" fill="#C8102E">B⃗ into page</text>

  <!-- Wire (horizontal) -->
  <rect x="80" y="208" width="560" height="20" fill="#F5F5F5" stroke="#56B4E9" stroke-width="1.5"/>

  <!-- Current direction (conventional, rightward) -->
  <line x1="50" y1="218" x2="80" y2="218" stroke="#C8860E" stroke-width="2" marker-end="url(#arrowoch)"/>
  <text x="50" y="208" font-family="'JetBrains Mono', 'Fira Code', 'Courier New', monospace" font-size="11" fill="#C8860E">I →</text>

  <!-- Individual electrons drifting leftward, with tiny upward force arrows -->
  <g fill="#56B4E9">
    <circle cx="540" cy="220" r="3"/>
    <circle cx="440" cy="220" r="3"/>
    <circle cx="340" cy="220" r="3"/>
    <circle cx="240" cy="220" r="3"/>
    <circle cx="140" cy="220" r="3"/>
  </g>
  <g stroke="#545454" stroke-width="0.5">
    <line x1="540" y1="220" x2="525" y2="220"/>
    <line x1="440" y1="220" x2="425" y2="220"/>
    <line x1="340" y1="220" x2="325" y2="220"/>
    <line x1="240" y1="220" x2="225" y2="220"/>
    <line x1="140" y1="220" x2="125" y2="220"/>
  </g>
  <!-- Tiny F arrows on each electron (upward) -->
  <g stroke="#C8860E" stroke-width="0.75" fill="none">
    <line x1="540" y1="216" x2="540" y2="198" marker-end="url(#arrowsm)"/>
    <line x1="440" y1="216" x2="440" y2="198" marker-end="url(#arrowsm)"/>
    <line x1="340" y1="216" x2="340" y2="198" marker-end="url(#arrowsm)"/>
    <line x1="240" y1="216" x2="240" y2="198" marker-end="url(#arrowsm)"/>
    <line x1="140" y1="216" x2="140" y2="198" marker-end="url(#arrowsm)"/>
  </g>
  <text x="350" y="248" text-anchor="middle" font-family="'JetBrains Mono', 'Fira Code', 'Courier New', monospace" font-size="9" fill="#545454">e⁻ drift ← (each feels a tiny ↑ push)</text>

  <!-- Net F arrow (macroscopic, upward) -->
  <line x1="350" y1="208" x2="350" y2="100" stroke="#C8102E" stroke-width="3" marker-end="url(#arrowred)"/>
  <text x="362" y="120" font-family="'JetBrains Mono', 'Fira Code', 'Courier New', monospace" font-size="12" fill="#C8102E">F⃗ = I L⃗ × B⃗</text>

  <!-- Right-hand rule annotation -->
  <text x="350" y="80" text-anchor="middle" font-family="'JetBrains Mono', 'Fira Code', 'Courier New', monospace" font-size="9" fill="#545454">RHR: index = I,  middle = B,  thumb = F</text>

  <!-- Caption -->
  <rect x="60" y="334" width="580" height="76" fill="#F5F5F5" stroke="#C8102E" stroke-width="1.25"/>
  <text x="350" y="354" text-anchor="middle" font-family="'EB Garamond', 'Garamond', Georgia, serif" font-size="12" fill="#2a1a0e">The wire isn't charged; the moving carriers are.</text>
  <text x="350" y="374" text-anchor="middle" font-family="'EB Garamond', 'Garamond', Georgia, serif" font-size="11" fill="#C8102E">Each electron's magnetic force transfers momentum to the lattice — the wire moves.</text>
  <text x="350" y="394" text-anchor="middle" font-family="'JetBrains Mono', 'Fira Code', 'Courier New', monospace" font-size="9" fill="#545454">Apparent paradox ("but motors do work?") resolves via the source's electric field — B itself does none.</text>
</svg>
