<!--
  Inside the MRI Solenoid — From Formula to 1.5 Tesla
  Book: Physics +1: Electromagnetism
  Chapter: 09-sources-magnetic-fields
  Figure: 06
  Type: Mechanism cross-section / annotated example
  Generated: 2026-05-25
  Source: pantry/09-sources-magnetic-fields-cajal.md
-->
<svg viewBox="0 0 700 460" xmlns="http://www.w3.org/2000/svg"
     role="img" aria-labelledby="fig-title">
  <title id="fig-title">Inside the MRI — B = μ₀ n I Engineered to Medical Scale</title>
  <desc>Cross-section of an MRI scanner. Cylindrical bore at the center; tightly wound superconducting coils around it, with current direction indicated. Patient outline inside the bore. Uniform B field arrows along the axis labeled with magnitude approximately 1.5 to 3 tesla. Sample values: n approximately 3000 turns per meter, I approximately 800 amps, gives B approximately 3 tesla.</desc>
  <metadata>
    <cajal:figure
      xmlns:cajal="https://bearbrown.ai/cajal/1.0"
      book="Physics +1: Electromagnetism"
      book-slug="physics-electromagnetism"
      chapter="09-sources-magnetic-fields"
      figure-number="06"
      figure-title="MRI Solenoid"
      figure-slug="mri-solenoid"
      figure-type="mechanism"
      priority="Important"
      author="Humanitarians AI"
      date-generated="2026-05-25"
      source-file="pantry/09-sources-magnetic-fields-cajal.md"
    />
  </metadata>
  <defs>
    <marker id="arrowpurp" markerWidth="10" markerHeight="8" refX="9" refY="4" orient="auto">
      <polygon points="0 0, 10 4, 0 8" fill="#7B61A8"/>
    </marker>
  </defs>
  <rect x="0" y="0" width="700" height="460" fill="#FFFFFF"/>

  <text x="32" y="36" font-family="'EB Garamond', 'Garamond', Georgia, serif" font-size="14" fill="#2a1a0e">MRI Scanner — B = μ₀ n I Engineered for Clinical Imaging</text>
  <text x="32" y="56" font-family="'Inter', -apple-system, 'Helvetica Neue', sans-serif" font-size="11" fill="#545454">A meter of superconductor at 800 A produces 3 T inside the bore — 60,000× Earth's field.</text>

  <!-- Outer scanner housing -->
  <rect x="80" y="130" width="540" height="180" fill="#F5F5F5" stroke="#2a1a0e" stroke-width="1.5" rx="20"/>

  <!-- Bore (inner cylinder) -->
  <rect x="80" y="190" width="540" height="60" fill="#FFFFFF" stroke="#2a1a0e" stroke-width="1.5"/>

  <!-- Coil turns (dots on top, X on bottom — current circulation) -->
  <g fill="#56B4E9">
    <circle cx="120" cy="170" r="3"/>
    <circle cx="170" cy="170" r="3"/>
    <circle cx="220" cy="170" r="3"/>
    <circle cx="270" cy="170" r="3"/>
    <circle cx="320" cy="170" r="3"/>
    <circle cx="370" cy="170" r="3"/>
    <circle cx="420" cy="170" r="3"/>
    <circle cx="470" cy="170" r="3"/>
    <circle cx="520" cy="170" r="3"/>
    <circle cx="570" cy="170" r="3"/>
  </g>
  <g stroke="#56B4E9" stroke-width="1.25">
    <line x1="116" y1="266" x2="124" y2="274"/>
    <line x1="124" y1="266" x2="116" y2="274"/>
    <line x1="166" y1="266" x2="174" y2="274"/>
    <line x1="174" y1="266" x2="166" y2="274"/>
    <line x1="216" y1="266" x2="224" y2="274"/>
    <line x1="224" y1="266" x2="216" y2="274"/>
    <line x1="266" y1="266" x2="274" y2="274"/>
    <line x1="274" y1="266" x2="266" y2="274"/>
    <line x1="316" y1="266" x2="324" y2="274"/>
    <line x1="324" y1="266" x2="316" y2="274"/>
    <line x1="366" y1="266" x2="374" y2="274"/>
    <line x1="374" y1="266" x2="366" y2="274"/>
    <line x1="416" y1="266" x2="424" y2="274"/>
    <line x1="424" y1="266" x2="416" y2="274"/>
    <line x1="466" y1="266" x2="474" y2="274"/>
    <line x1="474" y1="266" x2="466" y2="274"/>
    <line x1="516" y1="266" x2="524" y2="274"/>
    <line x1="524" y1="266" x2="516" y2="274"/>
    <line x1="566" y1="266" x2="574" y2="274"/>
    <line x1="574" y1="266" x2="566" y2="274"/>
  </g>
  <text x="350" y="146" text-anchor="middle" font-family="'JetBrains Mono', 'Fira Code', 'Courier New', monospace" font-size="9" fill="#56B4E9">superconducting coil · n turns/m  ·  I = 800 A</text>

  <!-- B field arrows inside the bore (uniform, rightward) -->
  <g stroke="#7B61A8" stroke-width="1.5" fill="none">
    <line x1="100" y1="210" x2="180" y2="210" marker-end="url(#arrowpurp)"/>
    <line x1="220" y1="210" x2="300" y2="210" marker-end="url(#arrowpurp)"/>
    <line x1="420" y1="210" x2="500" y2="210" marker-end="url(#arrowpurp)"/>
    <line x1="540" y1="210" x2="600" y2="210" marker-end="url(#arrowpurp)"/>
    <line x1="100" y1="232" x2="180" y2="232" marker-end="url(#arrowpurp)"/>
    <line x1="220" y1="232" x2="300" y2="232" marker-end="url(#arrowpurp)"/>
    <line x1="420" y1="232" x2="500" y2="232" marker-end="url(#arrowpurp)"/>
    <line x1="540" y1="232" x2="600" y2="232" marker-end="url(#arrowpurp)"/>
  </g>

  <!-- Patient outline in bore center -->
  <g fill="#C8860E" opacity="0.5" stroke="#2a1a0e" stroke-width="0.75">
    <circle cx="350" cy="208" r="10"/>
    <rect x="320" y="218" width="60" height="22"/>
  </g>
  <text x="350" y="208" text-anchor="middle" font-family="'JetBrains Mono', 'Fira Code', 'Courier New', monospace" font-size="8" fill="#2a1a0e">patient</text>

  <!-- Formula + values box -->
  <rect x="100" y="334" width="220" height="60" fill="#F5F5F5" stroke="#C8102E" stroke-width="1"/>
  <text x="210" y="354" text-anchor="middle" font-family="'JetBrains Mono', 'Fira Code', 'Courier New', monospace" font-size="11" fill="#C8102E">B = μ₀ n I</text>
  <text x="210" y="374" text-anchor="middle" font-family="'JetBrains Mono', 'Fira Code', 'Courier New', monospace" font-size="9" fill="#2a1a0e">n ≈ 3000 turns/m</text>
  <text x="210" y="388" text-anchor="middle" font-family="'JetBrains Mono', 'Fira Code', 'Courier New', monospace" font-size="9" fill="#2a1a0e">I ≈ 800 A → B ≈ 3 T</text>

  <!-- Scale comparison -->
  <rect x="380" y="334" width="220" height="60" fill="#F5F5F5" stroke="#7B61A8" stroke-width="1"/>
  <text x="490" y="354" text-anchor="middle" font-family="'JetBrains Mono', 'Fira Code', 'Courier New', monospace" font-size="10" fill="#7B61A8" letter-spacing="0.06em">SCALE</text>
  <text x="490" y="372" text-anchor="middle" font-family="'JetBrains Mono', 'Fira Code', 'Courier New', monospace" font-size="9" fill="#2a1a0e">Earth's field: 5 × 10⁻⁵ T</text>
  <text x="490" y="388" text-anchor="middle" font-family="'JetBrains Mono', 'Fira Code', 'Courier New', monospace" font-size="9" fill="#C8102E">MRI bore: ~60,000 × stronger</text>

  <!-- Caption -->
  <rect x="100" y="410" width="500" height="32" fill="#F5F5F5" stroke="#C8102E" stroke-width="1.25"/>
  <text x="350" y="430" text-anchor="middle" font-family="'EB Garamond', 'Garamond', Georgia, serif" font-size="11" fill="#2a1a0e">Every clinical MRI is B = μ₀ n I, scaled and uniformity-engineered to medical purpose.</text>
</svg>
